<?xml version="1.0" encoding="UTF-8" standalone="no"?>
<svg
   xmlns:osb="http://www.openswatchbook.org/uri/2009/osb"
   xmlns:dc="http://purl.org/dc/elements/1.1/"
   xmlns:cc="http://creativecommons.org/ns#"
   xmlns:rdf="http://www.w3.org/1999/02/22-rdf-syntax-ns#"
   xmlns:svg="http://www.w3.org/2000/svg"
   xmlns="http://www.w3.org/2000/svg"
   xmlns:xlink="http://www.w3.org/1999/xlink"
   xmlns:sodipodi="http://sodipodi.sourceforge.net/DTD/sodipodi-0.dtd"
   xmlns:inkscape="http://www.inkscape.org/namespaces/inkscape"
   width="210mm"
   height="297mm"
   viewBox="0 0 210 297"
   version="1.1"
   id="svg8"
   inkscape:version="1.0.1 (3bc2e813f5, 2020-09-07)"
   sodipodi:docname="chargebox.svg">
  <style></style>
  <defs
     id="defs2">
    <linearGradient
       id="linearGradient9513"
       osb:paint="solid">
      <stop
         style="stop-color:#000000;stop-opacity:1;"
         offset="0"
         id="stop9511" />
    </linearGradient>
    <linearGradient
       id="linearGradient7499">
      <stop
         style="stop-color:#000000;stop-opacity:1;"
         offset="0"
         id="stop9478" />
    </linearGradient>
    <linearGradient
       id="linearGradient9474"
       osb:paint="solid">
      <stop
         style="stop-color:#000000;stop-opacity:1;"
         offset="0"
         id="stop9472" />
    </linearGradient>
    <linearGradient
       id="linearGradient9464"
       osb:paint="solid">
      <stop
         style="stop-color:#000000;stop-opacity:1;"
         offset="0"
         id="stop9462" />
    </linearGradient>
    <linearGradient
       id="linearGradient7505"
       osb:paint="solid">
      <stop
         style="stop-color:#ff0000;stop-opacity:1;"
         offset="0"
         id="stop7503" />
    </linearGradient>
    <linearGradient
       id="linearGradient7499-2">
      <stop
         style="stop-color:#000000;stop-opacity:1;"
         offset="0"
         id="stop7497" />
    </linearGradient>
    <linearGradient
       id="linearGradient7366">
      <stop
         style="stop-color:#e50000;stop-opacity:1;"
         offset="0"
         id="stop7370" />
    </linearGradient>
    <linearGradient
       id="linearGradient7366-5">
      <stop
         style="stop-color:#e50000;stop-opacity:1;"
         offset="0"
         id="stop7364" />
    </linearGradient>
    <symbol
       id="Shelter">
      <title
         id="title3374">Shelter</title>
      <path
         d="M 3.3072917,16.139583 H 16.933333 V 14.684375 H 4.7625 V 9.3927083 l 12.170833,-5.55625 V 2.38125 L 1.8520833,9.2604167 v 1.4552083 l 1.4552084,-0.661458 z"
         style="stroke:none;stroke-width:0.264583"
         id="path3376" />
    </symbol>
    <symbol
       id="Shelter_Inv">
      <title
         id="title3379">Shelter</title>
      <rect
         x="0.13229166"
         y="0.13229166"
         width="18.785418"
         height="18.785418"
         ry="1.5875"
         style="stroke:#ffffff;stroke-width:0.264583"
         id="rect3381" />
      <path
         d="M 3.3072917,16.139583 H 16.933333 V 14.684375 H 4.7625 V 9.3927083 l 12.170833,-5.55625 V 2.38125 L 1.8520833,9.2604167 v 1.4552083 l 1.4552084,-0.661458 z"
         style="fill:#ffffff;stroke:none;stroke-width:0.264583"
         id="path3383" />
    </symbol>
    <symbol
       id="Campfire_Inv">
      <title
         id="title2573">Campfire</title>
      <rect
         x="0.13229166"
         y="0.13229166"
         width="18.785418"
         height="18.785418"
         ry="1.5875"
         style="stroke:#ffffff;stroke-width:0.264583"
         id="rect2575" />
      <g
         style="fill:#ffffff;stroke:none"
         id="g2589">
        <path
           d="M 3.175,13.361458 H 1.7197917 v 2.778125 c 0,0.926042 0.79375,1.521354 1.7197916,1.521354 H 15.610417 c 0.926041,0 1.719791,-0.595312 1.719791,-1.521354 V 13.361458 H 15.875 V 15.875 c 0,0.264583 -0.264583,0.529167 -0.529167,0.529167 H 3.7041667 C 3.4395833,16.404167 3.175,16.139583 3.175,15.875 Z"
           id="path2577"
           style="stroke-width:0.264583" />
        <path
           d="M 8.5989583,14.089062 4.7625,15.345833 v -2.116666 l 0.6945312,-0.231511 z"
           id="path2579"
           style="stroke-width:0.264583" />
        <path
           d="m 14.2875,15.213542 v -2.116667 l -9.525,-3.175 v 2.116667 z"
           id="path2581"
           style="stroke-width:0.264583" />
        <path
           d="M 10.31875,11.046354 14.2875,9.6903646 V 11.90625 l -0.661458,0.23151 z"
           id="path2583"
           style="stroke-width:0.264583" />
        <path
           d="M 7.0114583,9.921875 C 6.6145833,9.525 4.4979167,7.0114583 6.746875,4.7625 8.5989583,2.9104167 8.73125,1.5875 8.0697917,0.79375 c 0,0 4.6302083,1.8520833 1.9843753,6.35 C 9.525,7.9375 8.4666667,8.8635417 8.9958333,10.583333 Z"
           id="path2585"
           style="stroke-width:0.264583" />
        <path
           d="M 9.7895833,10.517187 C 9.6572917,10.186458 9.2604167,9.3927083 10.583333,7.8052083 c 0.79375,-0.9260416 0.926042,-2.1166666 1.058334,-2.6458333 0,0 2.38125,1.3229167 0.06615,4.6963542 z"
           id="path2587"
           style="stroke-width:0.264583" />
      </g>
    </symbol>
    <symbol
       id="Campfire">
      <title
         id="title2556">Campfire</title>
      <g
         style="stroke:none"
         id="g2570">
        <path
           d="M 3.175,13.361458 H 1.7197917 v 2.778125 c 0,0.926042 0.79375,1.521354 1.7197916,1.521354 H 15.610417 c 0.926041,0 1.719791,-0.595312 1.719791,-1.521354 V 13.361458 H 15.875 V 15.875 c 0,0.264583 -0.264583,0.529167 -0.529167,0.529167 H 3.7041667 C 3.4395833,16.404167 3.175,16.139583 3.175,15.875 Z"
           id="path2558"
           style="stroke-width:0.264583" />
        <path
           d="M 8.5989583,14.089062 4.7625,15.345833 v -2.116666 l 0.6945312,-0.231511 z"
           id="path2560"
           style="stroke-width:0.264583" />
        <path
           d="m 14.2875,15.213542 v -2.116667 l -9.525,-3.175 v 2.116667 z"
           id="path2562"
           style="stroke-width:0.264583" />
        <path
           d="M 10.31875,11.046354 14.2875,9.6903646 V 11.90625 l -0.661458,0.23151 z"
           id="path2564"
           style="stroke-width:0.264583" />
        <path
           d="M 7.0114583,9.921875 C 6.6145833,9.525 4.4979167,7.0114583 6.746875,4.7625 8.5989583,2.9104167 8.73125,1.5875 8.0697917,0.79375 c 0,0 4.6302083,1.8520833 1.9843753,6.35 C 9.525,7.9375 8.4666667,8.8635417 8.9958333,10.583333 Z"
           id="path2566"
           style="stroke-width:0.264583" />
        <path
           d="M 9.7895833,10.517187 C 9.6572917,10.186458 9.2604167,9.3927083 10.583333,7.8052083 c 0.79375,-0.9260416 0.926042,-2.1166666 1.058334,-2.6458333 0,0 2.38125,1.3229167 0.06615,4.6963542 z"
           id="path2568"
           style="stroke-width:0.264583" />
      </g>
    </symbol>
    <symbol
       id="Telephone_Inv">
      <title
         id="title39">Telephone</title>
      <rect
         x="0.13229166"
         y="0.13229166"
         width="18.785418"
         height="18.785418"
         ry="1.5875"
         style="stroke:#ffffff;stroke-width:0.264583"
         id="rect41" />
      <g
         style="fill:#ffffff;stroke:none"
         id="g48">
        <path
           d="m 6.0854167,9.525 c 0,6.35 2.9104166,7.9375 3.4395833,7.9375 v -4.497917 c -0.79375,0 -0.79375,-2.116666 -0.79375,-3.439583 0,-1.3229167 0,-3.4395833 0.79375,-3.4395833 V 1.5875 c -0.79375,0 -3.4395833,1.5875 -3.4395833,7.9375 z"
           id="path43"
           style="stroke-width:0.264583" />
        <path
           id="ear2"
           d="M 11.1125,6.0854167 A 0.52916667,0.52916667 0 0 0 11.641667,5.55625 V 2.1166667 A 0.52916667,0.52916667 0 0 0 11.1125,1.5875 h -1.058333 v 4.4979167 z"
           style="stroke-width:0.264583" />
        <use
           y="43"
           xlink:href="#ear2"
           id="use46"
           x="0"
           width="100%"
           height="100%" />
      </g>
    </symbol>
    <symbol
       id="Telephone">
      <title
         id="title29">Telephone</title>
      <g
         style="stroke:none"
         id="g36">
        <path
           d="m 6.0854167,9.525 c 0,6.35 2.9104166,7.9375 3.4395833,7.9375 v -4.497917 c -0.79375,0 -0.79375,-2.116666 -0.79375,-3.439583 0,-1.3229167 0,-3.4395833 0.79375,-3.4395833 V 1.5875 c -0.79375,0 -3.4395833,1.5875 -3.4395833,7.9375 z"
           id="path31"
           style="stroke-width:0.264583" />
        <path
           id="ear1"
           d="M 11.1125,6.0854167 A 0.52916667,0.52916667 0 0 0 11.641667,5.55625 V 2.1166667 A 0.52916667,0.52916667 0 0 0 11.1125,1.5875 h -1.058333 v 4.4979167 z"
           style="stroke-width:0.264583" />
        <use
           y="43"
           xlink:href="#ear1"
           id="use34"
           x="0"
           width="100%"
           height="100%" />
      </g>
    </symbol>
    <symbol
       id="EmergencyTelephone">
      <title
         id="title3631">Emergency Telephone</title>
      <g
         style="stroke:none"
         id="g3638">
        <path
           d="m 6.0854167,9.525 c 0,6.35 2.9104166,7.9375 3.4395833,7.9375 v -4.497917 c -0.79375,0 -0.79375,-2.116666 -0.79375,-3.439583 0,-1.3229167 0,-3.4395833 0.79375,-3.4395833 V 1.5875 c -0.79375,0 -3.4395833,1.5875 -3.4395833,7.9375 z"
           id="path3633"
           style="stroke-width:0.264583" />
        <path
           id="ear3"
           d="M 11.1125,6.0854167 A 0.52916667,0.52916667 0 0 0 11.641667,5.55625 V 2.1166667 A 0.52916667,0.52916667 0 0 0 11.1125,1.5875 h -1.058333 v 4.4979167 z"
           style="stroke-width:0.264583" />
        <use
           y="43"
           xlink:href="#ear3"
           id="use3636"
           x="0"
           width="100%"
           height="100%" />
      </g>
    </symbol>
    <symbol
       id="EmergencyTelephone_Inv">
      <title
         id="title3641">Emergency Telephone</title>
      <rect
         x="0.13229166"
         y="0.13229166"
         width="18.785418"
         height="18.785418"
         ry="1.5875"
         style="stroke:#ffffff;stroke-width:0.264583"
         id="rect3643" />
      <g
         style="fill:#ffffff;stroke:none"
         id="g3650">
        <path
           d="m 6.0854167,9.525 c 0,6.35 2.9104166,7.9375 3.4395833,7.9375 v -4.497917 c -0.79375,0 -0.79375,-2.116666 -0.79375,-3.439583 0,-1.3229167 0,-3.4395833 0.79375,-3.4395833 V 1.5875 c -0.79375,0 -3.4395833,1.5875 -3.4395833,7.9375 z"
           id="path3645"
           style="stroke-width:0.264583" />
        <path
           id="ear4"
           d="M 11.1125,6.0854167 A 0.52916667,0.52916667 0 0 0 11.641667,5.55625 V 2.1166667 A 0.52916667,0.52916667 0 0 0 11.1125,1.5875 h -1.058333 v 4.4979167 z"
           style="stroke-width:0.264583" />
        <use
           y="43"
           xlink:href="#ear4"
           id="use3648"
           x="0"
           width="100%"
           height="100%" />
      </g>
    </symbol>
  </defs>
  <sodipodi:namedview
     id="base"
     pagecolor="#ffffff"
     bordercolor="#666666"
     borderopacity="1.0"
     inkscape:pageopacity="0.0"
     inkscape:pageshadow="2"
     inkscape:zoom="0.49497475"
     inkscape:cx="811.46505"
     inkscape:cy="771.67841"
     inkscape:document-units="mm"
     inkscape:current-layer="layer1"
     inkscape:document-rotation="0"
     showgrid="false"
     inkscape:window-width="2560"
     inkscape:window-height="1377"
     inkscape:window-x="1912"
     inkscape:window-y="-8"
     inkscape:window-maximized="1" />
  <metadata
     id="metadata5">
    <rdf:RDF>
      <cc:Work
         rdf:about="">
        <dc:format>image/svg+xml</dc:format>
        <dc:type
           rdf:resource="http://purl.org/dc/dcmitype/StillImage" />
        <dc:title></dc:title>
      </cc:Work>
    </rdf:RDF>
  </metadata>
  <g
     inkscape:label="Lager 1"
     inkscape:groupmode="layer"
     id="layer1"
     style="display:inline">
    <path
       sodipodi:type="star"
       style="opacity:1;fill:#000000;fill-opacity:1;fill-rule:evenodd;stroke:#000000;stroke-width:6.49999;stroke-miterlimit:4;stroke-dasharray:none;paint-order:fill markers stroke"
       id="path9553"
       sodipodi:sides="3"
       sodipodi:cx="37.797619"
       sodipodi:cy="221.11607"
       sodipodi:r1="24.267132"
       sodipodi:r2="19.096216"
       sodipodi:arg1="2.223643"
       sodipodi:arg2="3.2708405"
       inkscape:flatsided="true"
       inkscape:rounded="0"
       inkscape:randomized="0"
       d="m 23.056546,240.39286 5.417423,-41.68132 33.388372,25.53228 z"
       inkscape:transform-center-x="-6.0116822"
       inkscape:transform-center-y="-3.9727349"
       transform="matrix(1.0157064,0.10664099,-0.1083245,1.0317408,26.193591,-19.22536)" />
    <circle
       style="fill:#ffffff;fill-opacity:1;stroke:#000000;stroke-width:5;stroke-miterlimit:4;stroke-dasharray:none"
       id="path5071"
       cx="109.23512"
       cy="141.3631"
       r="89.58036" />
    <ellipse
       style="fill:#000000;fill-opacity:1;fill-rule:evenodd;stroke:#000000;stroke-width:6.6546;stroke-miterlimit:4;stroke-dasharray:none;paint-order:stroke markers fill"
       id="path7362"
       cx="109.04613"
       cy="142.11902"
       rx="78.358467"
       ry="77.602516" />
    <g
       id="use12965"
       style="fill:#000000;stroke:#000000"
       transform="matrix(7.1354195,0,0,7.1354195,-198.52454,-64.558579)">
      <title
         id="title13838">Telephone</title>
    </g>
    <g
       style="fill:#ffffff;fill-opacity:1;stroke:#000000;stroke-width:0.00415284;stroke-miterlimit:4;stroke-dasharray:none"
       id="g14038"
       transform="matrix(0.24079918,0,0,0.24079918,55.953288,86.896614)">
      <g
         id="SVGRepo_bgCarrier"
         stroke-width="0"
         style="fill:#ffffff;fill-opacity:1;stroke-width:0.00415284;stroke-miterlimit:4;stroke-dasharray:none" />
      <g
         id="SVGRepo_tracerCarrier"
         stroke-linecap="round"
         stroke-linejoin="round"
         stroke="#cccccc"
         stroke-width="0.873434"
         style="fill:#ffffff;fill-opacity:1;stroke-width:0.00415284;stroke-miterlimit:4;stroke-dasharray:none" />
      <g
         id="SVGRepo_iconCarrier"
         style="fill:#ffffff;fill-opacity:1;stroke-width:0.00415284;stroke-miterlimit:4;stroke-dasharray:none"> <g
   id="g14018"
   style="fill:#ffffff;fill-opacity:1;stroke-width:0.00415284;stroke-miterlimit:4;stroke-dasharray:none"> <g
   id="g14016"
   style="fill:#ffffff;fill-opacity:1;stroke-width:0.00415284;stroke-miterlimit:4;stroke-dasharray:none"> <path
   d="M 318.409,34.292 H 263.936 V 11.117 C 263.937,4.978 258.958,0 252.819,0 H 183.895 C 177.756,0 172.78,4.978 172.78,11.117 v 23.175 h -54.473 c -12.279,0 -22.234,9.954 -22.234,22.233 v 357.958 c 0,12.279 9.955,22.234 22.234,22.234 h 200.102 c 12.279,0 22.234,-9.955 22.234,-22.234 V 56.526 c 0.001,-12.28 -9.955,-22.234 -22.234,-22.234 z M 296.177,392.25 H 140.541 V 78.759 h 155.637 z"
   id="path14006"
   style="fill:#ffffff;fill-opacity:1;stroke-width:0.00415284;stroke-miterlimit:4;stroke-dasharray:none" />
 <path
   d="m 166.108,230.984 h 104.498 c 3.07,0 5.559,-2.49 5.559,-5.559 v -30.387 c 0,-3.069 -2.487,-5.558 -5.559,-5.558 H 166.108 c -3.07,0 -5.559,2.489 -5.559,5.558 v 30.386 c 0,3.07 2.49,5.56 5.559,5.56 z"
   id="path14008"
   style="fill:#ffffff;fill-opacity:1;stroke-width:0.00415284;stroke-miterlimit:4;stroke-dasharray:none" />
 <path
   d="m 166.108,297.684 h 104.498 c 3.07,0 5.559,-2.488 5.559,-5.559 v -30.387 c 0,-3.069 -2.487,-5.559 -5.559,-5.559 H 166.108 c -3.07,0 -5.559,2.489 -5.559,5.559 v 30.387 c 0,3.07 2.49,5.559 5.559,5.559 z"
   id="path14010"
   style="fill:#ffffff;fill-opacity:1;stroke-width:0.00415284;stroke-miterlimit:4;stroke-dasharray:none" />
 <path
   d="m 166.108,364.385 h 104.498 c 3.07,0 5.559,-2.49 5.559,-5.561 v -30.385 c 0,-3.069 -2.487,-5.559 -5.559,-5.559 H 166.108 c -3.07,0 -5.559,2.489 -5.559,5.559 v 30.385 c 0,3.071 2.49,5.561 5.559,5.561 z"
   id="path14012"
   style="fill:#ffffff;fill-opacity:1;stroke-width:0.00415284;stroke-miterlimit:4;stroke-dasharray:none" />
 <path
   d="m 185.84,146.793 h 20.4 v 20.4 c 0,3.069 2.488,5.558 5.559,5.558 h 13.118 c 3.069,0 5.559,-2.489 5.559,-5.558 v -20.4 h 20.398 c 3.069,0 5.559,-2.489 5.559,-5.559 v -13.116 c 0,-3.07 -2.488,-5.559 -5.559,-5.559 h -20.398 v -20.4 c 0,-3.069 -2.488,-5.558 -5.559,-5.558 h -13.118 c -3.07,0 -5.559,2.488 -5.559,5.558 v 20.4 h -20.4 c -3.07,0 -5.559,2.488 -5.559,5.559 v 13.116 c 0.001,3.07 2.49,5.559 5.559,5.559 z"
   id="path14014"
   style="fill:#ffffff;fill-opacity:1;stroke-width:0.00415284;stroke-miterlimit:4;stroke-dasharray:none" />
 </g>
 </g>
 </g>
    </g>
  </g>
</svg>
